<svg width="232" height="90" viewBox="0 0 232 90" fill="none" xmlns="http://www.w3.org/2000/svg">
<g clip-path="url(#clip0_36_2)">
<path d="M194.81 9.52C173.66 3.38 145.67 0 116 0C86.33 0 58.34 3.38 37.19 9.52C12.51 16.69 0 26.6 0 39C0 51.4 12.51 61.31 37.19 68.48C58.34 74.62 86.33 78 116 78C123.82 78 131.55 77.76 139.12 77.29C136.54 79.95 136.26 84.16 138.62 87.15C140.1 89.03 142.29 90 144.51 90C146.14 90 147.78 89.47 149.15 88.39L167.99 73.51C169.98 71.95 171.06 69.5 170.88 66.98C170.7 64.46 169.28 62.19 167.1 60.92L148.26 50.01C144.67 47.93 140.09 49.16 138.01 52.74C136.16 55.94 136.94 59.93 139.67 62.23C131.94 62.74 124.03 63 116 63C87.71 63 61.2 59.83 41.37 54.07C19.74 47.79 15 41.06 15 39C15 36.94 19.74 30.21 41.37 23.93C61.2 18.17 87.71 15 116 15C144.29 15 170.8 18.17 190.63 23.93C212.26 30.21 217 36.94 217 39C217 40.07 215.83 42.07 212.56 44.49C209.23 46.95 208.52 51.65 210.99 54.98C213.45 58.31 218.15 59.02 221.48 56.55C228.46 51.39 232 45.48 232 39C232 26.6 219.49 16.69 194.81 9.52Z" fill="#7937A6"/>
</g>
<defs>
<clipPath id="clip0_36_2">
<rect width="232" height="90" fill="white"/>
</clipPath>
</defs>
</svg>
