<svg width="278" height="196" viewBox="0 0 278 196" fill="none" xmlns="http://www.w3.org/2000/svg">
<path opacity="0.57" d="M278 24.4824C236.5 24.4824 217.57 48.8254 210.69 76.9352C208.83 84.5503 208.4 92.5376 204.96 99.6898C201.52 106.833 193.84 113.168 185.31 112.252C169.05 110.509 164.17 85.939 147.8 86.0207C140.47 86.057 134.58 91.4484 130.43 96.9396C126.28 102.422 122.66 108.657 116.36 112.043C108.2 116.436 97.31 114.72 89.59 109.719C81.87 104.718 76.82 97.0032 72.97 89.1339C67.09 77.1167 63.49 64.3007 58.81 51.866C54.12 39.4222 48.15 27.0782 38.38 17.3755C28.61 7.67278 14.95 2 0 2V196H278V24.4824Z" fill="url(#paint0_linear_1065_1363)"/>
<path d="M105.676 117C99.6364 117 93.2966 115.189 87.8668 111.657C80.9671 107.17 75.4373 100.343 70.4675 90.1666C66.4376 81.9109 63.4377 73.1819 60.5278 64.7441C59.1579 60.7574 57.7379 56.6432 56.238 52.6382C52.3281 42.2161 46.5183 28.9451 36.2587 18.7415C26.769 9.31158 13.8995 4.11421 0 4.11421V0C15.5894 0 29.9689 5.76171 40.4885 16.2202C51.2982 26.9699 57.3279 40.7143 61.3778 51.4913C62.8977 55.5418 64.3177 59.6833 65.6976 63.6883C68.5675 72.0259 71.5374 80.6548 75.4673 88.7194C80.1071 98.213 85.1369 104.503 91.3167 108.508C97.5565 112.558 107.246 114.815 114.826 110.729C119.466 108.225 122.706 103.72 125.835 99.3599C126.595 98.304 127.345 97.2573 128.125 96.2287C134.095 88.3189 140.715 84.2866 147.795 84.2593H147.895C157.714 84.2593 163.594 91.3317 169.274 98.1766C174.054 103.929 178.994 109.864 185.683 110.592C192.773 111.348 199.483 105.495 202.453 99.3144C204.683 94.6631 205.583 89.666 206.543 84.3776C206.993 81.9018 207.453 79.335 208.063 76.8319C219.002 31.967 252.131 22.5553 278 22.5553V26.6695C234.812 26.6695 218.992 54.3585 213.322 77.5874C212.732 79.9995 212.282 82.5117 211.842 84.942C210.892 90.2213 209.902 95.6735 207.473 100.743C203.883 108.235 195.283 115.78 184.943 114.67C175.804 113.687 170.194 106.933 164.764 100.398C159.624 94.2171 154.774 88.3735 147.885 88.3735H147.825C141.535 88.4008 136.155 93.7893 132.755 98.2949C132.005 99.2962 131.265 100.325 130.525 101.353C127.095 106.123 123.556 111.047 117.906 114.096C114.296 116.044 110.066 117 105.686 117H105.676Z" fill="url(#paint1_linear_1065_1363)"/>
<defs>
<linearGradient id="paint0_linear_1065_1363" x1="139" y1="197.452" x2="139" y2="45.2765" gradientUnits="userSpaceOnUse">
<stop stop-color="#A352D9" stop-opacity="0.4"/>
<stop offset="1" stop-color="#7937A6"/>
</linearGradient>
<linearGradient id="paint1_linear_1065_1363" x1="0" y1="58.5" x2="277.99" y2="58.5" gradientUnits="userSpaceOnUse">
<stop stop-color="#A352D9"/>
<stop offset="1" stop-color="#7937A6"/>
</linearGradient>
</defs>
</svg>
