<svg width="171" height="100" viewBox="0 0 171 100" fill="none" xmlns="http://www.w3.org/2000/svg">
<path d="M18 89C16.9 89 16 88.1 16 87V13C16 11.9 16.9 11 18 11C19.1 11 20 11.9 20 13V87C20 88.1 19.1 89 18 89Z" fill="url(#paint0_linear_1110_299)"/>
<path d="M10 74.2C8.9 74.2 8 73.3 8 72.2V27.8C8 26.7 8.9 25.8 10 25.8C11.1 25.8 12 26.7 12 27.8V72.2C12 73.3 11.1 74.2 10 74.2Z" fill="url(#paint1_linear_1110_299)"/>
<path d="M2 63.1C0.9 63.1 0 62.2 0 61.1V38.9C0 37.8 0.9 36.9 2 36.9C3.1 36.9 4 37.8 4 38.9V61.1C4 62.2 3.1 63.1 2 63.1Z" fill="url(#paint2_linear_1110_299)"/>
<path d="M42 71C40.9 71 40 70.1 40 69V31C40 29.9 40.9 29 42 29C43.1 29 44 29.9 44 31V69C44 70.1 43.1 71 42 71Z" fill="url(#paint3_linear_1110_299)"/>
<path d="M34 74.2C32.9 74.2 32 73.3 32 72.2V27.8C32 26.7 32.9 25.8 34 25.8C35.1 25.8 36 26.7 36 27.8V72.2C36 73.3 35.1 74.2 34 74.2Z" fill="url(#paint4_linear_1110_299)"/>
<path d="M26 63.1C24.9 63.1 24 62.2 24 61.1V38.9C24 37.8 24.9 36.9 26 36.9C27.1 36.9 28 37.8 28 38.9V61.1C28 62.2 27.1 63.1 26 63.1Z" fill="url(#paint5_linear_1110_299)"/>
<path d="M66 100C64.9 100 64 99.1 64 98V2C64 0.9 64.9 0 66 0C67.1 0 68 0.9 68 2V98C68 99.1 67.1 100 66 100Z" fill="url(#paint6_linear_1110_299)"/>
<path d="M58 77C56.9 77 56 76.1 56 75V25C56 23.9 56.9 23 58 23C59.1 23 60 23.9 60 25V75C60 76.1 59.1 77 58 77Z" fill="url(#paint7_linear_1110_299)"/>
<path d="M50 63.1C48.9 63.1 48 62.2 48 61.1V38.9C48 37.8 48.9 36.9 50 36.9C51.1 36.9 52 37.8 52 38.9V61.1C52 62.2 51.1 63.1 50 63.1Z" fill="url(#paint8_linear_1110_299)"/>
<path d="M90 61C88.9 61 88 60.1 88 59V41C88 39.9 88.9 39 90 39C91.1 39 92 39.9 92 41V59C92 60.1 91.1 61 90 61Z" fill="url(#paint9_linear_1110_299)"/>
<path d="M82 74.2C80.9 74.2 80 73.3 80 72.2V27.8C80 26.7 80.9 25.8 82 25.8C83.1 25.8 84 26.7 84 27.8V72.2C84 73.3 83.1 74.2 82 74.2Z" fill="url(#paint10_linear_1110_299)"/>
<path d="M74 84C72.9 84 72 83.1 72 82V18C72 16.9 72.9 16 74 16C75.1 16 76 16.9 76 18V82C76 83.1 75.1 84 74 84Z" fill="url(#paint11_linear_1110_299)"/>
<path d="M114 68C112.9 68 112 67.1 112 66V34C112 32.9 112.9 32 114 32C115.1 32 116 32.9 116 34V66C116 67.1 115.1 68 114 68Z" fill="url(#paint12_linear_1110_299)"/>
<path d="M106 55C104.9 55 104 54.1 104 53V47C104 45.9 104.9 45 106 45C107.1 45 108 45.9 108 47V53C108 54.1 107.1 55 106 55Z" fill="url(#paint13_linear_1110_299)"/>
<path d="M98 57C96.9 57 96 56.1 96 55V45C96 43.9 96.9 43 98 43C99.1 43 100 43.9 100 45V55C100 56.1 99.1 57 98 57Z" fill="url(#paint14_linear_1110_299)"/>
<path d="M153 61C151.9 61 151 60.1 151 59V41C151 39.9 151.9 39 153 39C154.1 39 155 39.9 155 41V59C155 60.1 154.1 61 153 61Z" fill="url(#paint15_linear_1110_299)"/>
<path d="M145 74.2C143.9 74.2 143 73.3 143 72.2V27.8C143 26.7 143.9 25.8 145 25.8C146.1 25.8 147 26.7 147 27.8V72.2C147 73.3 146.1 74.2 145 74.2Z" fill="url(#paint16_linear_1110_299)"/>
<path d="M169 55C167.9 55 167 54.1 167 53V47C167 45.9 167.9 45 169 45C170.1 45 171 45.9 171 47V53C171 54.1 170.1 55 169 55Z" fill="url(#paint17_linear_1110_299)"/>
<path d="M161 57C159.9 57 159 56.1 159 55V45C159 43.9 159.9 43 161 43C162.1 43 163 43.9 163 45V55C163 56.1 162.1 57 161 57Z" fill="url(#paint18_linear_1110_299)"/>
<path d="M138 89C136.9 89 136 88.1 136 87V13C136 11.9 136.9 11 138 11C139.1 11 140 11.9 140 13V87C140 88.1 139.1 89 138 89Z" fill="url(#paint19_linear_1110_299)"/>
<path d="M130 81C128.9 81 128 80.1 128 79V21C128 19.9 128.9 19 130 19C131.1 19 132 19.9 132 21V79C132 80.1 131.1 81 130 81Z" fill="url(#paint20_linear_1110_299)"/>
<path d="M122 74C120.9 74 120 73.1 120 72V28C120 26.9 120.9 26 122 26C123.1 26 124 26.9 124 28V72C124 73.1 123.1 74 122 74Z" fill="url(#paint21_linear_1110_299)"/>
<defs>
<linearGradient id="paint0_linear_1110_299" x1="16" y1="50" x2="20" y2="50" gradientUnits="userSpaceOnUse">
<stop stop-color="#A352D9"/>
<stop offset="1" stop-color="#7937A6"/>
</linearGradient>
<linearGradient id="paint1_linear_1110_299" x1="8" y1="50" x2="12" y2="50" gradientUnits="userSpaceOnUse">
<stop stop-color="#A352D9"/>
<stop offset="1" stop-color="#7937A6"/>
</linearGradient>
<linearGradient id="paint2_linear_1110_299" x1="0" y1="50" x2="4" y2="50" gradientUnits="userSpaceOnUse">
<stop stop-color="#A352D9"/>
<stop offset="1" stop-color="#7937A6"/>
</linearGradient>
<linearGradient id="paint3_linear_1110_299" x1="40" y1="0" x2="44" y2="0" gradientUnits="userSpaceOnUse">
<stop stop-color="#A352D9"/>
<stop offset="1" stop-color="#7937A6"/>
</linearGradient>
<linearGradient id="paint4_linear_1110_299" x1="32" y1="50" x2="36" y2="50" gradientUnits="userSpaceOnUse">
<stop stop-color="#A352D9"/>
<stop offset="1" stop-color="#7937A6"/>
</linearGradient>
<linearGradient id="paint5_linear_1110_299" x1="24" y1="50" x2="28" y2="50" gradientUnits="userSpaceOnUse">
<stop stop-color="#A352D9"/>
<stop offset="1" stop-color="#7937A6"/>
</linearGradient>
<linearGradient id="paint6_linear_1110_299" x1="64" y1="0" x2="68" y2="0" gradientUnits="userSpaceOnUse">
<stop stop-color="#A352D9"/>
<stop offset="1" stop-color="#7937A6"/>
</linearGradient>
<linearGradient id="paint7_linear_1110_299" x1="56" y1="0" x2="60" y2="0" gradientUnits="userSpaceOnUse">
<stop stop-color="#A352D9"/>
<stop offset="1" stop-color="#7937A6"/>
</linearGradient>
<linearGradient id="paint8_linear_1110_299" x1="48" y1="50" x2="52" y2="50" gradientUnits="userSpaceOnUse">
<stop stop-color="#A352D9"/>
<stop offset="1" stop-color="#7937A6"/>
</linearGradient>
<linearGradient id="paint9_linear_1110_299" x1="88" y1="0" x2="92" y2="0" gradientUnits="userSpaceOnUse">
<stop stop-color="#A352D9"/>
<stop offset="1" stop-color="#7937A6"/>
</linearGradient>
<linearGradient id="paint10_linear_1110_299" x1="80" y1="50" x2="84" y2="50" gradientUnits="userSpaceOnUse">
<stop stop-color="#A352D9"/>
<stop offset="1" stop-color="#7937A6"/>
</linearGradient>
<linearGradient id="paint11_linear_1110_299" x1="72" y1="0" x2="76" y2="0" gradientUnits="userSpaceOnUse">
<stop stop-color="#A352D9"/>
<stop offset="1" stop-color="#7937A6"/>
</linearGradient>
<linearGradient id="paint12_linear_1110_299" x1="116" y1="50" x2="112" y2="50" gradientUnits="userSpaceOnUse">
<stop stop-color="#A352D9"/>
<stop offset="1" stop-color="#7937A6"/>
</linearGradient>
<linearGradient id="paint13_linear_1110_299" x1="104" y1="0" x2="108" y2="0" gradientUnits="userSpaceOnUse">
<stop stop-color="#A352D9"/>
<stop offset="1" stop-color="#7937A6"/>
</linearGradient>
<linearGradient id="paint14_linear_1110_299" x1="96" y1="0" x2="100" y2="0" gradientUnits="userSpaceOnUse">
<stop stop-color="#A352D9"/>
<stop offset="1" stop-color="#7937A6"/>
</linearGradient>
<linearGradient id="paint15_linear_1110_299" x1="151" y1="0" x2="155" y2="0" gradientUnits="userSpaceOnUse">
<stop stop-color="#A352D9"/>
<stop offset="1" stop-color="#7937A6"/>
</linearGradient>
<linearGradient id="paint16_linear_1110_299" x1="143" y1="50" x2="147" y2="50" gradientUnits="userSpaceOnUse">
<stop stop-color="#A352D9"/>
<stop offset="1" stop-color="#7937A6"/>
</linearGradient>
<linearGradient id="paint17_linear_1110_299" x1="167" y1="0" x2="171" y2="0" gradientUnits="userSpaceOnUse">
<stop stop-color="#A352D9"/>
<stop offset="1" stop-color="#7937A6"/>
</linearGradient>
<linearGradient id="paint18_linear_1110_299" x1="159" y1="0" x2="163" y2="0" gradientUnits="userSpaceOnUse">
<stop stop-color="#A352D9"/>
<stop offset="1" stop-color="#7937A6"/>
</linearGradient>
<linearGradient id="paint19_linear_1110_299" x1="136" y1="0" x2="140" y2="0" gradientUnits="userSpaceOnUse">
<stop stop-color="#A352D9"/>
<stop offset="1" stop-color="#7937A6"/>
</linearGradient>
<linearGradient id="paint20_linear_1110_299" x1="128" y1="0" x2="132" y2="0" gradientUnits="userSpaceOnUse">
<stop stop-color="#A352D9"/>
<stop offset="1" stop-color="#7937A6"/>
</linearGradient>
<linearGradient id="paint21_linear_1110_299" x1="124" y1="50" x2="120" y2="50" gradientUnits="userSpaceOnUse">
<stop stop-color="#A352D9"/>
<stop offset="1" stop-color="#7937A6"/>
</linearGradient>
</defs>
</svg>
