<svg width="114" height="114" viewBox="0 0 114 114" fill="none" xmlns="http://www.w3.org/2000/svg">
<path d="M89.65 0H24.35C10.9019 0 0 10.9019 0 24.35V89.65C0 103.098 10.9019 114 24.35 114H89.65C103.098 114 114 103.098 114 89.65V24.35C114 10.9019 103.098 0 89.65 0Z" fill="url(#paint0_linear_1110_284)"/>
<path d="M98.71 63.53C94.48 78.92 78.58 87.96 63.19 83.73C50.36 80.21 41.94 68.57 41.95 55.88C43.06 66.54 50.55 75.93 61.51 78.94C75.78 82.86 90.53 74.47 94.45 60.2C98.26 46.35 90.47 32.05 76.96 27.63C77.48 27.74 77.99 27.87 78.5 28.01C93.89 32.24 102.93 48.14 98.7 63.53H98.71Z" fill="#F5F5F7"/>
<path d="M48.25 57.34C50.37 62.41 54.71 66.49 60.42 68.06C70.27 70.77 80.44 64.98 83.15 55.13C85.82 45.4 80.2 35.35 70.57 32.5C71.67 32.61 72.77 32.82 73.86 33.12C84.83 36.14 91.28 47.48 88.27 58.45C85.25 69.42 73.91 75.87 62.94 72.86C55.28 70.76 49.83 64.6 48.26 57.34H48.25Z" fill="#F5F5F7"/>
<path d="M15.29 50.47C19.52 35.08 35.42 26.04 50.81 30.27C63.64 33.79 72.06 45.43 72.05 58.12C70.94 47.46 63.45 38.07 52.49 35.06C38.22 31.14 23.47 39.53 19.55 53.8C15.74 67.65 23.53 81.95 37.04 86.37C36.52 86.26 36.01 86.13 35.5 85.99C20.11 81.76 11.07 65.86 15.3 50.47H15.29Z" fill="#F5F5F7"/>
<path d="M65.75 56.66C63.63 51.59 59.29 47.51 53.58 45.94C43.73 43.23 33.56 49.02 30.85 58.87C28.18 68.6 33.8 78.65 43.43 81.5C42.33 81.39 41.23 81.18 40.14 80.88C29.17 77.86 22.72 66.52 25.73 55.55C28.75 44.58 40.09 38.13 51.06 41.14C58.72 43.24 64.17 49.4 65.74 56.66H65.75Z" fill="#F5F5F7"/>
<defs>
<linearGradient id="paint0_linear_1110_284" x1="0" y1="57" x2="114" y2="57" gradientUnits="userSpaceOnUse">
<stop stop-color="#A352D9"/>
<stop offset="1" stop-color="#7937A6"/>
</linearGradient>
</defs>
</svg>
