{
	"asset":{
		"generator":"Khronos glTF Blender I/O v3.6.27",
		"version":"2.0"
	},
	"extensionsUsed":[
		"KHR_materials_transmission",
		"KHR_materials_ior"
	],
	"scene":0,
	"scenes":[
		{
			"name":"Scene",
			"nodes":[
				0
			]
		}
	],
	"nodes":[
		{
			"mesh":0,
			"name":"BezierCircle"
		}
	],
	"materials":[
		{
			"doubleSided":true,
			"name":"Metal",
			"pbrMetallicRoughness":{
				"baseColorFactor":[
					0.393113374710083,
					0.393113374710083,
					0.393113374710083,
					1
				],
				"roughnessFactor":0.27952754497528076
			}
		},
		{
			"alphaMode":"BLEND",
			"doubleSided":true,
			"extensions":{
				"KHR_materials_transmission":{
					"transmissionFactor":1
				},
				"KHR_materials_ior":{
					"ior":1.4500000476837158
				}
			},
			"name":"Plast",
			"pbrMetallicRoughness":{
				"baseColorFactor":[
					0.5416978597640991,
					0.5814616680145264,
					0.5367322564125061,
					0.6062992215156555
				],
				"metallicFactor":0,
				"roughnessFactor":0.5
			}
		},
		{
			"doubleSided":true,
			"name":"lether",
			"pbrMetallicRoughness":{
				"baseColorFactor":[
					0.1006162166595459,
					0.026018377393484116,
					0.00458019133657217,
					1
				],
				"metallicFactor":0,
				"roughnessFactor":0.885826826095581
			}
		}
	],
	"meshes":[
		{
			"name":"BezierCircle",
			"primitives":[
				{
					"attributes":{
						"POSITION":0,
						"NORMAL":1,
						"TEXCOORD_0":2
					},
					"indices":3,
					"material":0
				},
				{
					"attributes":{
						"POSITION":4,
						"NORMAL":5,
						"TEXCOORD_0":6
					},
					"indices":7,
					"material":1
				},
				{
					"attributes":{
						"POSITION":8,
						"NORMAL":9,
						"TEXCOORD_0":10
					},
					"indices":11,
					"material":2
				}
			]
		}
	],
	"accessors":[
		{
			"bufferView":0,
			"componentType":5126,
			"count":525,
			"max":[
				0.6550172567367554,
				3.833966016769409,
				0.19657109677791595
			],
			"min":[
				-0.6550172567367554,
				1.164966106414795,
				-0.03275095671415329
			],
			"type":"VEC3"
		},
		{
			"bufferView":1,
			"componentType":5126,
			"count":525,
			"type":"VEC3"
		},
		{
			"bufferView":2,
			"componentType":5126,
			"count":525,
			"type":"VEC2"
		},
		{
			"bufferView":3,
			"componentType":5123,
			"count":2784,
			"type":"SCALAR"
		},
		{
			"bufferView":4,
			"componentType":5126,
			"count":483,
			"max":[
				0.647619903087616,
				0.6476202011108398,
				0.29115691781044006
			],
			"min":[
				-0.6476195454597473,
				-0.6476199626922607,
				-0.24625983834266663
			],
			"type":"VEC3"
		},
		{
			"bufferView":5,
			"componentType":5126,
			"count":483,
			"type":"VEC3"
		},
		{
			"bufferView":6,
			"componentType":5126,
			"count":483,
			"type":"VEC2"
		},
		{
			"bufferView":7,
			"componentType":5123,
			"count":960,
			"type":"SCALAR"
		},
		{
			"bufferView":8,
			"componentType":5126,
			"count":9686,
			"max":[
				1.0068246126174927,
				2.954531669616699,
				0.23063164949417114
			],
			"min":[
				-1.0068246126174927,
				-1.0044529438018799,
				-0.18566299974918365
			],
			"type":"VEC3"
		},
		{
			"bufferView":9,
			"componentType":5126,
			"count":9686,
			"type":"VEC3"
		},
		{
			"bufferView":10,
			"componentType":5126,
			"count":9686,
			"type":"VEC2"
		},
		{
			"bufferView":11,
			"componentType":5123,
			"count":24282,
			"type":"SCALAR"
		}
	],
	"bufferViews":[
		{
			"buffer":0,
			"byteLength":6300,
			"byteOffset":0,
			"target":34962
		},
		{
			"buffer":0,
			"byteLength":6300,
			"byteOffset":6300,
			"target":34962
		},
		{
			"buffer":0,
			"byteLength":4200,
			"byteOffset":12600,
			"target":34962
		},
		{
			"buffer":0,
			"byteLength":5568,
			"byteOffset":16800,
			"target":34963
		},
		{
			"buffer":0,
			"byteLength":5796,
			"byteOffset":22368,
			"target":34962
		},
		{
			"buffer":0,
			"byteLength":5796,
			"byteOffset":28164,
			"target":34962
		},
		{
			"buffer":0,
			"byteLength":3864,
			"byteOffset":33960,
			"target":34962
		},
		{
			"buffer":0,
			"byteLength":1920,
			"byteOffset":37824,
			"target":34963
		},
		{
			"buffer":0,
			"byteLength":116232,
			"byteOffset":39744,
			"target":34962
		},
		{
			"buffer":0,
			"byteLength":116232,
			"byteOffset":155976,
			"target":34962
		},
		{
			"buffer":0,
			"byteLength":77488,
			"byteOffset":272208,
			"target":34962
		},
		{
			"buffer":0,
			"byteLength":48564,
			"byteOffset":349696,
			"target":34963
		}
	],
	"buffers":[
		{
			"byteLength":398260,
			"uri":"data:application/octet-stream;base64,"
		}
	]
}
