{
	"asset":{
		"generator":"Khronos glTF Blender I/O v3.6.28",
		"version":"2.0"
	},
	"extensionsUsed":[
		"KHR_materials_clearcoat",
		"KHR_materials_transmission",
		"KHR_materials_ior"
	],
	"scene":0,
	"scenes":[
		{
			"name":"Scene",
			"nodes":[
				0
			]
		}
	],
	"nodes":[
		{
			"mesh":0,
			"name":"swirls",
			"rotation":[
				0.652763843536377,
				0.652763843536377,
				-0.27184441685676575,
				0.27184435725212097
			],
			"scale":[
				0.11805994808673859,
				0.11805994063615799,
				0.11805994808673859
			],
			"translation":[
				0.41994184255599976,
				3.3482398986816406,
				-0.39911648631095886
			]
		}
	],
	"materials":[
		{
			"alphaMode":"BLEND",
			"doubleSided":true,
			"extensions":{
				"KHR_materials_clearcoat":{
					"clearcoatFactor":0.6267123222351074,
					"clearcoatRoughnessFactor":0.029999999329447746
				}
			},
			"name":"swirls",
			"pbrMetallicRoughness":{
				"baseColorTexture":{
					"index":0
				},
				"metallicFactor":0,
				"roughnessFactor":0.3732876777648926
			}
		},
		{
			"doubleSided":true,
			"extensions":{
				"KHR_materials_clearcoat":{
					"clearcoatFactor":0.5445205569267273,
					"clearcoatRoughnessFactor":0.029999999329447746
				},
				"KHR_materials_transmission":{
					"transmissionFactor":0.784246563911438
				},
				"KHR_materials_ior":{
					"ior":1.4500000476837158
				}
			},
			"name":"Plast",
			"pbrMetallicRoughness":{
				"baseColorFactor":[
					0.14233426749706268,
					0.14544278383255005,
					0.14683358371257782,
					0.411848783493042
				],
				"metallicFactor":0,
				"roughnessFactor":0.15068493783473969
			}
		},
		{
			"doubleSided":true,
			"name":"lether",
			"pbrMetallicRoughness":{
				"baseColorFactor":[
					0.08001009374856949,
					0.021268794313073158,
					0.003889920888468623,
					1
				],
				"metallicFactor":0,
				"roughnessFactor":0.885826826095581
			}
		},
		{
			"doubleSided":true,
			"name":"Metal",
			"pbrMetallicRoughness":{
				"baseColorFactor":[
					0.393113374710083,
					0.393113374710083,
					0.393113374710083,
					1
				],
				"roughnessFactor":0.27952754497528076
			}
		},
		{
			"doubleSided":true,
			"name":"Silver",
			"pbrMetallicRoughness":{
				"baseColorFactor":[
					0.5488505959510803,
					0.5488505959510803,
					0.5488505959510803,
					1
				],
				"roughnessFactor":0.15000000596046448
			}
		}
	],
	"meshes":[
		{
			"name":"swirls",
			"primitives":[
				{
					"attributes":{
						"POSITION":0,
						"NORMAL":1,
						"TEXCOORD_0":2
					},
					"indices":3,
					"material":0
				},
				{
					"attributes":{
						"POSITION":4,
						"NORMAL":5,
						"TEXCOORD_0":6
					},
					"indices":7,
					"material":1
				},
				{
					"attributes":{
						"POSITION":8,
						"NORMAL":9,
						"TEXCOORD_0":10
					},
					"indices":11,
					"material":2
				},
				{
					"attributes":{
						"POSITION":12,
						"NORMAL":13,
						"TEXCOORD_0":14
					},
					"indices":15,
					"material":3
				},
				{
					"attributes":{
						"POSITION":16,
						"NORMAL":17,
						"TEXCOORD_0":18
					},
					"indices":19,
					"material":4
				}
			]
		}
	],
	"textures":[
		{
			"sampler":0,
			"source":0
		}
	],
	"images":[
		{
			"bufferView":4,
			"mimeType":"image/png",
			"name":"swirls"
		}
	],
	"accessors":[
		{
			"bufferView":0,
			"componentType":5126,
			"count":4,
			"max":[
				0.43549370765686035,
				-0.8094390630722046,
				0.4995068311691284
			],
			"min":[
				-0.740609347820282,
				-1.0558594465255737,
				-0.3406454622745514
			],
			"type":"VEC3"
		},
		{
			"bufferView":1,
			"componentType":5126,
			"count":4,
			"type":"VEC3"
		},
		{
			"bufferView":2,
			"componentType":5126,
			"count":4,
			"type":"VEC2"
		},
		{
			"bufferView":3,
			"componentType":5123,
			"count":6,
			"type":"SCALAR"
		},
		{
			"bufferView":5,
			"componentType":5126,
			"count":262,
			"max":[
				0.8445086479187012,
				-0.806888222694397,
				1.0962709188461304
			],
			"min":[
				-1.176450252532959,
				-1.770345687866211,
				-0.9040932655334473
			],
			"type":"VEC3"
		},
		{
			"bufferView":6,
			"componentType":5126,
			"count":262,
			"type":"VEC3"
		},
		{
			"bufferView":7,
			"componentType":5126,
			"count":262,
			"type":"VEC2"
		},
		{
			"bufferView":8,
			"componentType":5123,
			"count":960,
			"type":"SCALAR"
		},
		{
			"bufferView":9,
			"componentType":5126,
			"count":4509,
			"max":[
				1.3261220455169678,
				-0.801497220993042,
				1.6040047407150269
			],
			"min":[
				-1.6673080921173096,
				-2.0594303607940674,
				-4.345498561859131
			],
			"type":"VEC3"
		},
		{
			"bufferView":10,
			"componentType":5126,
			"count":4509,
			"type":"VEC3"
		},
		{
			"bufferView":11,
			"componentType":5126,
			"count":4509,
			"type":"VEC2"
		},
		{
			"bufferView":12,
			"componentType":5123,
			"count":24282,
			"type":"SCALAR"
		},
		{
			"bufferView":13,
			"componentType":5126,
			"count":329,
			"max":[
				0.6140591502189636,
				-1.2793625593185425,
				-1.6216719150543213
			],
			"min":[
				-0.18927228450775146,
				-1.537453293800354,
				-2.4295105934143066
			],
			"type":"VEC3"
		},
		{
			"bufferView":14,
			"componentType":5126,
			"count":329,
			"type":"VEC3"
		},
		{
			"bufferView":15,
			"componentType":5126,
			"count":329,
			"type":"VEC2"
		},
		{
			"bufferView":16,
			"componentType":5123,
			"count":1632,
			"type":"SCALAR"
		},
		{
			"bufferView":17,
			"componentType":5126,
			"count":196,
			"max":[
				1.8294322490692139,
				-1.6528923511505127,
				-3.6304428577423096
			],
			"min":[
				-0.5152976512908936,
				-2.3825795650482178,
				-5.980755805969238
			],
			"type":"VEC3"
		},
		{
			"bufferView":18,
			"componentType":5126,
			"count":196,
			"type":"VEC3"
		},
		{
			"bufferView":19,
			"componentType":5126,
			"count":196,
			"type":"VEC2"
		},
		{
			"bufferView":20,
			"componentType":5123,
			"count":1152,
			"type":"SCALAR"
		}
	],
	"bufferViews":[
		{
			"buffer":0,
			"byteLength":48,
			"byteOffset":0,
			"target":34962
		},
		{
			"buffer":0,
			"byteLength":48,
			"byteOffset":48,
			"target":34962
		},
		{
			"buffer":0,
			"byteLength":32,
			"byteOffset":96,
			"target":34962
		},
		{
			"buffer":0,
			"byteLength":12,
			"byteOffset":128,
			"target":34963
		},
		{
			"buffer":0,
			"byteLength":49480,
			"byteOffset":140
		},
		{
			"buffer":0,
			"byteLength":3144,
			"byteOffset":49620,
			"target":34962
		},
		{
			"buffer":0,
			"byteLength":3144,
			"byteOffset":52764,
			"target":34962
		},
		{
			"buffer":0,
			"byteLength":2096,
			"byteOffset":55908,
			"target":34962
		},
		{
			"buffer":0,
			"byteLength":1920,
			"byteOffset":58004,
			"target":34963
		},
		{
			"buffer":0,
			"byteLength":54108,
			"byteOffset":59924,
			"target":34962
		},
		{
			"buffer":0,
			"byteLength":54108,
			"byteOffset":114032,
			"target":34962
		},
		{
			"buffer":0,
			"byteLength":36072,
			"byteOffset":168140,
			"target":34962
		},
		{
			"buffer":0,
			"byteLength":48564,
			"byteOffset":204212,
			"target":34963
		},
		{
			"buffer":0,
			"byteLength":3948,
			"byteOffset":252776,
			"target":34962
		},
		{
			"buffer":0,
			"byteLength":3948,
			"byteOffset":256724,
			"target":34962
		},
		{
			"buffer":0,
			"byteLength":2632,
			"byteOffset":260672,
			"target":34962
		},
		{
			"buffer":0,
			"byteLength":3264,
			"byteOffset":263304,
			"target":34963
		},
		{
			"buffer":0,
			"byteLength":2352,
			"byteOffset":266568,
			"target":34962
		},
		{
			"buffer":0,
			"byteLength":2352,
			"byteOffset":268920,
			"target":34962
		},
		{
			"buffer":0,
			"byteLength":1568,
			"byteOffset":271272,
			"target":34962
		},
		{
			"buffer":0,
			"byteLength":2304,
			"byteOffset":272840,
			"target":34963
		}
	],
	"samplers":[
		{
			"magFilter":9729,
			"minFilter":9987,
			"wrapS":33071,
			"wrapT":33071
		}
	],
	"buffers":[
		{
			"byteLength":275144,
			"uri":"data:application/octet-stream;base64,"
		}
	]
}
