<svg width="653" height="85" viewBox="0 0 653 85" fill="none" xmlns="http://www.w3.org/2000/svg">
<g clip-path="url(#clip0_70_50)">
<path d="M0 83.45V0H69.91C78.55 0 85.26 2.18 90.04 6.54C94.83 10.9 97.22 17.51 97.22 26.38C97.22 35.25 94.83 41.86 90.04 46.22C85.26 50.58 78.54 52.76 69.91 52.76H18.67V83.45H0ZM67.69 15.17H18.67V37.46L67.69 37.58C71.11 37.58 73.74 36.72 75.57 35.01C77.4 33.3 78.31 30.42 78.31 26.37C78.31 22.32 77.39 19.35 75.57 17.68C73.74 16.01 71.12 15.17 67.69 15.17Z" fill="#1D1D1F"/>
<path d="M107.14 83.45V23.34H153.12C159.89 23.34 164.87 25.03 168.06 28.42C171.25 31.8 172.84 36.26 172.84 41.78V54.27H155.68V43.88C155.68 39.21 153.35 36.88 148.68 36.88H124.29V83.45H107.13H107.14Z" fill="#1D1D1F"/>
<path d="M215.32 84.03C204.89 84.03 196.76 81.44 190.93 76.27C185.09 71.1 182.18 63.49 182.18 53.45C182.18 43.41 185.1 35.69 190.93 30.52C196.77 25.35 204.9 22.76 215.32 22.76H236.91C247.34 22.76 255.47 25.35 261.3 30.52C267.14 35.7 270.05 43.34 270.05 53.45C270.05 63.56 267.13 71.09 261.3 76.27C255.46 81.45 247.33 84.03 236.91 84.03H215.32ZM215.32 70.61H236.91C241.97 70.61 245.84 69.21 248.52 66.41C251.2 63.61 252.55 59.29 252.55 53.46C252.55 47.63 251.21 43.19 248.52 40.39C245.84 37.59 241.96 36.19 236.91 36.19H215.32C210.26 36.19 206.39 37.59 203.71 40.39C201.03 43.19 199.68 47.55 199.68 53.46C199.68 59.37 201.02 63.61 203.71 66.41C206.39 69.21 210.26 70.61 215.32 70.61Z" fill="#1D1D1F"/>
<path d="M313.71 76.53C307.07 76.53 303.1 72.52 303.1 65.8V36.05H328.08V29.85H303.1V11.4H293.4V29.84H276.02V36.04H293.4V67.9C293.4 72.51 294.64 76.07 297.2 78.78C299.67 81.4 303.81 82.73 309.51 82.73H331.34V76.53H313.71Z" fill="#1D1D1F"/>
<path d="M331.34 76.53V82.73H309.51C303.81 82.73 299.67 81.4 297.2 78.78C294.64 76.07 293.4 72.51 293.4 67.9V36.04H276.02V29.84H293.4V11.4H303.1V29.84H328.08V36.04H303.1V65.79C303.1 72.51 307.07 76.52 313.71 76.52H331.34V76.53Z" fill="#1D1D1F"/>
<path d="M356.05 63.44L355.06 59.03H403.69C415.81 59.03 421.2 54.49 421.2 44.32C421.2 39.36 419.82 35.72 416.98 33.19C414.06 30.58 409.59 29.26 403.68 29.26H374.51C365.04 29.26 357.64 31.56 352.51 36.12C347.44 40.61 344.97 47.23 344.97 56.34C344.97 65.45 347.44 71.96 352.51 76.46C357.64 81 365.04 83.31 374.51 83.31H418.16V77.12H374.51C361.8 77.12 357.45 69.68 356.04 63.45L356.05 63.44ZM356.21 48.26C357.82 42.42 362.31 35.46 374.52 35.46H402.87C408.2 35.46 411.5 38.72 411.5 43.97C411.5 47.19 410.23 49.2 409.15 50.32C408.05 51.47 406.07 52.83 402.86 52.83H354.94L356.2 48.26H356.21Z" fill="#1D1D1F"/>
<path d="M356.05 63.44L355.06 59.03H403.69C415.81 59.03 421.2 54.49 421.2 44.32C421.2 39.36 419.82 35.72 416.98 33.19C414.06 30.58 409.59 29.26 403.68 29.26H374.51C365.04 29.26 357.64 31.56 352.51 36.12C347.44 40.61 344.97 47.23 344.97 56.34C344.97 65.45 347.44 71.96 352.51 76.46C357.64 81 365.04 83.31 374.51 83.31H418.16V77.12H374.51C361.8 77.12 357.45 69.68 356.04 63.45L356.05 63.44ZM356.21 48.26C357.82 42.42 362.31 35.46 374.52 35.46H402.87C408.2 35.46 411.5 38.72 411.5 43.97C411.5 47.19 410.23 49.2 409.15 50.32C408.05 51.47 406.07 52.83 402.86 52.83H354.94L356.2 48.26H356.21Z" fill="#1D1D1F"/>
<path d="M466.13 77.11C460.07 77.11 455.28 75.32 451.91 71.79C448.57 68.31 446.87 63.11 446.87 56.33C446.87 49.55 448.57 44.25 451.91 40.77C455.28 37.24 460.07 35.45 466.13 35.45H501.61V29.25H466.13C456.66 29.25 449.26 31.55 444.14 36.11C439.07 40.6 436.6 47.22 436.6 56.33C436.6 65.44 439.06 71.95 444.14 76.45C449.26 80.99 456.66 83.3 466.13 83.3H502.78V77.11H466.13Z" fill="#1D1D1F"/>
<path d="M502.78 77.11V83.3H466.13C456.66 83.3 449.26 81 444.14 76.45C439.07 71.96 436.6 65.37 436.6 56.33C436.6 47.29 439.06 40.6 444.14 36.11C449.26 31.56 456.67 29.25 466.13 29.25H501.61V35.45H466.13C460.07 35.45 455.28 37.23 451.91 40.77C448.57 44.25 446.87 49.49 446.87 56.33C446.87 63.17 448.57 68.3 451.91 71.79C455.28 75.32 460.07 77.11 466.13 77.11H502.78Z" fill="#1D1D1F"/>
<path d="M579.9 33.77C577.48 31.16 573.32 29.84 567.55 29.84H528.46V6.5H518.76V82.72H528.46V36.04H563.35C570 36.04 573.96 40.01 573.96 46.65V82.72H583.66V44.66C583.66 40.04 582.43 36.47 579.9 33.76V33.77Z" fill="#1D1D1F"/>
<path d="M583.65 44.67V82.73H573.95V46.66C573.95 40.01 569.98 36.05 563.34 36.05H528.45V82.73H518.75V6.5H528.45V29.84H567.54C573.31 29.84 577.47 31.16 579.89 33.77C582.42 36.48 583.65 40.05 583.65 44.67Z" fill="#1D1D1F"/>
<path d="M635.01 76.53C628.36 76.53 624.39 72.52 624.39 65.8V36.05H649.37V29.85H624.39V11.4H614.69V29.84H597.31V36.04H614.69V67.9C614.69 72.51 615.93 76.07 618.49 78.78C620.96 81.4 625.1 82.73 630.8 82.73H652.63V76.53H635.01Z" fill="#1D1D1F"/>
<path d="M652.63 76.53V82.73H630.8C625.1 82.73 620.96 81.4 618.49 78.78C615.93 76.07 614.69 72.51 614.69 67.9V36.04H597.31V29.84H614.69V11.4H624.39V29.84H649.37V36.04H624.39V65.79C624.39 72.51 628.36 76.52 635.01 76.52H652.63V76.53Z" fill="#1D1D1F"/>
</g>
<defs>
<clipPath id="clip0_70_50">
<rect width="652.63" height="84.03" fill="white"/>
</clipPath>
</defs>
</svg>
