<svg width="167" height="25" viewBox="0 0 167 25" fill="none" xmlns="http://www.w3.org/2000/svg">
<path d="M41.5273 20.3307V4.11588H54.968C56.6291 4.11588 57.9192 4.53951 58.8382 5.38679C59.7591 6.23406 60.2186 7.51858 60.2186 9.24228C60.2186 10.966 59.7591 12.2505 58.8382 13.0978C57.9192 13.9451 56.6272 14.3687 54.968 14.3687H45.1168V20.3327H41.5273V20.3307ZM54.5412 7.06385H45.1168V11.3955L54.5412 11.4188C55.1987 11.4188 55.7044 11.2516 56.0562 10.9193C56.408 10.587 56.583 10.0274 56.583 9.24034C56.583 8.45331 56.4061 7.87615 56.0562 7.55162C55.7044 7.22709 55.2007 7.06385 54.5412 7.06385Z" fill="#F5F5F7"/>
<path d="M62.1257 20.3307V8.64957H70.9657C72.2673 8.64957 73.2247 8.97798 73.838 9.63676C74.4513 10.2936 74.757 11.1603 74.757 12.233V14.6602H71.4579V12.6411C71.4579 11.7336 71.0099 11.2808 70.1121 11.2808H65.4229V20.3307H62.1238H62.1257Z" fill="#F5F5F7"/>
<path d="M82.9241 20.4454C80.9189 20.4454 79.3558 19.9421 78.235 18.9374C77.1122 17.9327 76.5527 16.4539 76.5527 14.5028C76.5527 12.5517 77.1141 11.0515 78.235 10.0468C79.3578 9.04213 80.9208 8.53882 82.9241 8.53882H87.075C89.0802 8.53882 90.6432 9.04213 91.7641 10.0468C92.8869 11.0534 93.4464 12.5381 93.4464 14.5028C93.4464 16.4675 92.885 17.9308 91.7641 18.9374C90.6413 19.944 89.0783 20.4454 87.075 20.4454H82.9241ZM82.9241 17.8375H87.075C88.0478 17.8375 88.7918 17.5654 89.3071 17.0213C89.8223 16.4772 90.0819 15.6377 90.0819 14.5047C90.0819 13.3718 89.8242 12.509 89.3071 11.9648C88.7918 11.4207 88.0459 11.1487 87.075 11.1487H82.9241C81.9513 11.1487 81.2073 11.4207 80.692 11.9648C80.1768 12.509 79.9172 13.3562 79.9172 14.5047C79.9172 15.6532 80.1749 16.4772 80.692 17.0213C81.2073 17.5654 81.9513 17.8375 82.9241 17.8375Z" fill="#F5F5F7"/>
<path d="M101.84 18.9859C100.564 18.9859 99.8003 18.2067 99.8003 16.9008V11.1195H104.603V9.91464H99.8003V6.33121H97.9354V9.91464H94.594V11.1195H97.9354V17.3108C97.9354 18.2067 98.1738 18.8985 98.666 19.4251C99.1409 19.9343 99.9368 20.1927 101.033 20.1927H105.23V18.9879H101.84V18.9859Z" fill="#F5F5F7"/>
<path d="M105.23 18.986V20.1908H101.033C99.9368 20.1908 99.1409 19.9323 98.666 19.4232C98.1738 18.8966 97.9354 18.2047 97.9354 17.3089V11.1176H94.594V9.91272H97.9354V6.32928H99.8003V9.91272H104.603V11.1176H99.8003V16.8989C99.8003 18.2047 100.564 18.984 101.84 18.984H105.23V18.986Z" fill="#F5F5F7"/>
<path d="M109.98 16.4441L109.79 15.5871H119.139C121.47 15.5871 122.506 14.7049 122.506 12.7285C122.506 11.7647 122.241 11.0573 121.695 10.5657C121.133 10.0585 120.274 9.80194 119.138 9.80194H113.529C111.709 9.80194 110.286 10.2489 109.3 11.135C108.325 12.0076 107.85 13.294 107.85 15.0644C107.85 16.8347 108.325 18.0998 109.3 18.9743C110.286 19.8565 111.709 20.3054 113.529 20.3054H121.921V19.1025H113.529C111.086 19.1025 110.249 17.6567 109.978 16.4461L109.98 16.4441ZM110.011 13.4942C110.321 12.3593 111.184 11.0068 113.531 11.0068H118.982C120.007 11.0068 120.641 11.6403 120.641 12.6605C120.641 13.2863 120.397 13.6769 120.189 13.8945C119.978 14.118 119.597 14.3823 118.98 14.3823H109.767L110.009 13.4942H110.011Z" fill="#F5F5F7"/>
<path d="M109.98 16.4441L109.79 15.5871H119.139C121.47 15.5871 122.506 14.7049 122.506 12.7285C122.506 11.7647 122.241 11.0573 121.695 10.5657C121.133 10.0585 120.274 9.80194 119.138 9.80194H113.529C111.709 9.80194 110.286 10.2489 109.3 11.135C108.325 12.0076 107.85 13.294 107.85 15.0644C107.85 16.8347 108.325 18.0998 109.3 18.9743C110.286 19.8565 111.709 20.3054 113.529 20.3054H121.921V19.1025H113.529C111.086 19.1025 110.249 17.6567 109.978 16.4461L109.98 16.4441ZM110.011 13.4942C110.321 12.3593 111.184 11.0068 113.531 11.0068H118.982C120.007 11.0068 120.641 11.6403 120.641 12.6605C120.641 13.2863 120.397 13.6769 120.189 13.8945C119.978 14.118 119.597 14.3823 118.98 14.3823H109.767L110.009 13.4942H110.011Z" fill="#F5F5F7"/>
<path d="M131.144 19.1006C129.979 19.1006 129.058 18.7527 128.41 18.0668C127.768 17.3905 127.441 16.38 127.441 15.0624C127.441 13.7449 127.768 12.7149 128.41 12.0387C129.058 11.3527 129.979 11.0048 131.144 11.0048H137.965V9.79999H131.144C129.323 9.79999 127.901 10.2469 126.916 11.1331C125.942 12.0056 125.467 13.2921 125.467 15.0624C125.467 16.8328 125.94 18.0978 126.916 18.9723C127.901 19.8546 129.323 20.3035 131.144 20.3035H138.19V19.1006H131.144Z" fill="#F5F5F7"/>
<path d="M138.19 19.1006V20.3035H131.144C129.323 20.3035 127.901 19.8565 126.916 18.9723C125.942 18.0998 125.467 16.8192 125.467 15.0624C125.467 13.3057 125.94 12.0056 126.916 11.1331C127.901 10.2489 129.325 9.79999 131.144 9.79999H137.965V11.0048H131.144C129.979 11.0048 129.058 11.3507 128.41 12.0387C127.768 12.7149 127.441 13.7332 127.441 15.0624C127.441 16.3916 127.768 17.3885 128.41 18.0668C129.058 18.7527 129.979 19.1006 131.144 19.1006H138.19Z" fill="#F5F5F7"/>
<path d="M153.017 10.6784C152.552 10.1712 151.752 9.91464 150.643 9.91464H143.128V5.379H141.263V20.1908H143.128V11.1195H149.835C151.114 11.1195 151.875 11.891 151.875 13.1813V20.1908H153.74V12.7946C153.74 11.8968 153.504 11.203 153.017 10.6764V10.6784Z" fill="#F5F5F7"/>
<path d="M153.738 12.7965V20.1927H151.873V13.1833C151.873 11.891 151.11 11.1214 149.833 11.1214H143.126V20.1927H141.261V5.379H143.126V9.91464H150.641C151.75 9.91464 152.55 10.1712 153.015 10.6784C153.502 11.205 153.738 11.8987 153.738 12.7965Z" fill="#F5F5F7"/>
<path d="M163.613 18.9859C162.334 18.9859 161.571 18.2067 161.571 16.9008V11.1195H166.373V9.91464H161.571V6.33121H159.706V9.91464H156.365V11.1195H159.706V17.3108C159.706 18.2067 159.944 18.8985 160.437 19.4251C160.911 19.9343 161.707 20.1927 162.803 20.1927H167V18.9879H163.613V18.9859Z" fill="#F5F5F7"/>
<path d="M167 18.986V20.1908H162.803C161.707 20.1908 160.911 19.9323 160.437 19.4232C159.944 18.8966 159.706 18.2047 159.706 17.3089V11.1176H156.365V9.91272H159.706V6.32928H161.571V9.91272H166.373V11.1176H161.571V16.8989C161.571 18.2047 162.334 18.984 163.613 18.984H167V18.986Z" fill="#F5F5F7"/>
<path d="M34.935 15.01C33.1854 21.4423 26.6083 25.2239 20.2427 23.4555C14.9364 21.9806 11.4546 17.1165 11.4565 11.8094C11.916 16.2654 15.0152 20.1928 19.5467 21.452C25.4509 23.0921 31.5512 19.5845 33.1739 13.6167C34.7485 7.82564 31.5282 1.84807 25.9412 0C26.1546 0.046639 26.3661 0.0991079 26.5776 0.157407C32.9413 1.9258 36.6826 8.57381 34.935 15.0081V15.01Z" fill="url(#paint0_linear_137_143)"/>
<path d="M14.0654 12.4215C14.9402 14.5417 16.7378 16.2459 19.0987 16.9028C23.1726 18.0338 27.3812 15.6144 28.5001 11.4965C29.619 7.37869 27.2812 3.22393 23.2957 2.03464C23.7494 2.08322 24.2031 2.17067 24.6569 2.29504C29.1961 3.55624 31.8627 8.29593 30.6149 12.884C29.3672 17.4722 24.678 20.1675 20.1388 18.9063C16.9724 18.026 14.7172 15.4531 14.0654 12.4196V12.4215Z" fill="url(#paint1_linear_137_143)"/>
<path d="M0.430469 9.54937C2.18001 3.11707 8.75712 -0.664577 15.1208 1.10382C20.4271 2.57878 23.9089 7.44284 23.907 12.75C23.4475 8.294 20.3483 4.36661 15.8168 3.10735C9.91451 1.46721 3.81419 4.97486 2.19154 10.9427C0.568894 16.9106 3.83726 22.7113 9.42425 24.5594C9.21085 24.5127 8.99936 24.4603 8.78788 24.402C2.42225 22.6316 -1.31907 15.9836 0.430469 9.54937Z" fill="url(#paint2_linear_137_143)"/>
<path d="M21.3 12.1378C20.4252 10.0177 18.6276 8.31343 16.2667 7.6566C12.1928 6.5256 7.98425 8.945 6.86532 13.0628C5.74638 17.1807 8.08423 21.3354 12.0697 22.5247C11.616 22.4762 11.1623 22.3887 10.7085 22.2643C6.16935 21.0031 3.50274 16.2634 4.75049 11.6753C5.99824 7.08721 10.6874 4.39186 15.2266 5.65306C18.393 6.53337 20.6482 9.10629 21.3 12.1398V12.1378Z" fill="url(#paint3_linear_137_143)"/>
<defs>
<linearGradient id="paint0_linear_137_143" x1="9.68021" y1="19.3114" x2="33.9057" y2="8.57149" gradientUnits="userSpaceOnUse">
<stop stop-color="#A352D9"/>
<stop offset="1" stop-color="#7937A6"/>
</linearGradient>
<linearGradient id="paint1_linear_137_143" x1="30.6318" y1="6.77326" x2="16.3379" y2="14.8649" gradientUnits="userSpaceOnUse">
<stop stop-color="#A352D9"/>
<stop offset="1" stop-color="#7937A6"/>
</linearGradient>
<linearGradient id="paint2_linear_137_143" x1="25.6786" y1="5.24719" x2="1.45488" y2="15.9877" gradientUnits="userSpaceOnUse">
<stop stop-color="#A352D9"/>
<stop offset="1" stop-color="#7937A6"/>
</linearGradient>
<linearGradient id="paint3_linear_137_143" x1="4.72818" y1="17.7878" x2="19.0221" y2="9.69618" gradientUnits="userSpaceOnUse">
<stop stop-color="#A352D9"/>
<stop offset="1" stop-color="#7937A6"/>
</linearGradient>
</defs>
</svg>
