<svg width="653" height="284" viewBox="0 0 653 284" fill="none" xmlns="http://www.w3.org/2000/svg">
<g clip-path="url(#clip0_70_66)">
<path d="M0 282.62V199.17H69.91C78.55 199.17 85.26 201.35 90.04 205.71C94.83 210.07 97.22 216.68 97.22 225.55C97.22 234.42 94.83 241.03 90.04 245.39C85.26 249.75 78.54 251.93 69.91 251.93H18.67V282.62H0ZM67.69 214.35H18.67V236.64L67.69 236.76C71.11 236.76 73.74 235.9 75.57 234.19C77.4 232.48 78.31 229.6 78.31 225.55C78.31 221.5 77.39 218.53 75.57 216.86C73.74 215.19 71.12 214.35 67.69 214.35Z" fill="#1D1D1F"/>
<path d="M107.14 282.62V222.51H153.12C159.89 222.51 164.87 224.2 168.06 227.59C171.25 230.97 172.84 235.43 172.84 240.95V253.44H155.68V243.05C155.68 238.38 153.35 236.05 148.68 236.05H124.29V282.62H107.13H107.14Z" fill="#1D1D1F"/>
<path d="M215.32 283.2C204.89 283.2 196.76 280.61 190.93 275.44C185.09 270.27 182.18 262.66 182.18 252.62C182.18 242.58 185.1 234.86 190.93 229.69C196.77 224.52 204.9 221.93 215.32 221.93H236.91C247.34 221.93 255.47 224.52 261.3 229.69C267.14 234.87 270.05 242.51 270.05 252.62C270.05 262.73 267.13 270.26 261.3 275.44C255.46 280.62 247.33 283.2 236.91 283.2H215.32ZM215.32 269.78H236.91C241.97 269.78 245.84 268.38 248.52 265.58C251.2 262.78 252.55 258.46 252.55 252.63C252.55 246.8 251.21 242.36 248.52 239.56C245.84 236.76 241.96 235.36 236.91 235.36H215.32C210.26 235.36 206.39 236.76 203.71 239.56C201.03 242.36 199.68 246.72 199.68 252.63C199.68 258.54 201.02 262.78 203.71 265.58C206.39 268.38 210.26 269.78 215.32 269.78Z" fill="#1D1D1F"/>
<path d="M313.71 275.7C307.07 275.7 303.1 271.69 303.1 264.97V235.22H328.08V229.02H303.1V210.58H293.4V229.02H276.02V235.22H293.4V267.08C293.4 271.69 294.64 275.25 297.2 277.96C299.67 280.58 303.81 281.91 309.51 281.91H331.34V275.71H313.71V275.7Z" fill="#1D1D1F"/>
<path d="M331.34 275.7V281.9H309.51C303.81 281.9 299.67 280.57 297.2 277.95C294.64 275.24 293.4 271.68 293.4 267.07V235.21H276.02V229.01H293.4V210.57H303.1V229.01H328.08V235.21H303.1V264.96C303.1 271.68 307.07 275.69 313.71 275.69H331.34V275.7Z" fill="#1D1D1F"/>
<path d="M356.05 262.62L355.06 258.21H403.69C415.81 258.21 421.2 253.67 421.2 243.5C421.2 238.54 419.82 234.9 416.98 232.37C414.06 229.76 409.59 228.44 403.68 228.44H374.51C365.04 228.44 357.64 230.74 352.51 235.3C347.44 239.79 344.97 246.41 344.97 255.52C344.97 264.63 347.44 271.14 352.51 275.64C357.64 280.18 365.04 282.49 374.51 282.49H418.16V276.3H374.51C361.8 276.3 357.45 268.86 356.04 262.63L356.05 262.62ZM356.21 247.44C357.82 241.6 362.31 234.64 374.52 234.64H402.87C408.2 234.64 411.5 237.9 411.5 243.15C411.5 246.37 410.23 248.38 409.15 249.5C408.05 250.65 406.07 252.01 402.86 252.01H354.94L356.2 247.44H356.21Z" fill="#1D1D1F"/>
<path d="M356.05 262.62L355.06 258.21H403.69C415.81 258.21 421.2 253.67 421.2 243.5C421.2 238.54 419.82 234.9 416.98 232.37C414.06 229.76 409.59 228.44 403.68 228.44H374.51C365.04 228.44 357.64 230.74 352.51 235.3C347.44 239.79 344.97 246.41 344.97 255.52C344.97 264.63 347.44 271.14 352.51 275.64C357.64 280.18 365.04 282.49 374.51 282.49H418.16V276.3H374.51C361.8 276.3 357.45 268.86 356.04 262.63L356.05 262.62ZM356.21 247.44C357.82 241.6 362.31 234.64 374.52 234.64H402.87C408.2 234.64 411.5 237.9 411.5 243.15C411.5 246.37 410.23 248.38 409.15 249.5C408.05 250.65 406.07 252.01 402.86 252.01H354.94L356.2 247.44H356.21Z" fill="#1D1D1F"/>
<path d="M466.13 276.29C460.07 276.29 455.28 274.5 451.91 270.97C448.57 267.49 446.87 262.29 446.87 255.51C446.87 248.73 448.57 243.43 451.91 239.95C455.28 236.42 460.07 234.63 466.13 234.63H501.61V228.43H466.13C456.66 228.43 449.26 230.73 444.14 235.29C439.07 239.78 436.6 246.4 436.6 255.51C436.6 264.62 439.06 271.13 444.14 275.63C449.26 280.17 456.66 282.48 466.13 282.48H502.78V276.29H466.13Z" fill="#1D1D1F"/>
<path d="M502.78 276.29V282.48H466.13C456.66 282.48 449.26 280.18 444.14 275.63C439.07 271.14 436.6 264.55 436.6 255.51C436.6 246.47 439.06 239.78 444.14 235.29C449.26 230.74 456.67 228.43 466.13 228.43H501.61V234.63H466.13C460.07 234.63 455.28 236.41 451.91 239.95C448.57 243.43 446.87 248.67 446.87 255.51C446.87 262.35 448.57 267.48 451.91 270.97C455.28 274.5 460.07 276.29 466.13 276.29H502.78Z" fill="#1D1D1F"/>
<path d="M579.9 232.95C577.48 230.34 573.32 229.02 567.55 229.02H528.46V205.68H518.76V281.9H528.46V235.22H563.35C570 235.22 573.96 239.19 573.96 245.83V281.9H583.66V243.84C583.66 239.22 582.43 235.65 579.9 232.94V232.95Z" fill="#1D1D1F"/>
<path d="M583.65 243.84V281.9H573.95V245.83C573.95 239.18 569.98 235.22 563.34 235.22H528.45V281.9H518.75V205.68H528.45V229.02H567.54C573.31 229.02 577.47 230.34 579.89 232.95C582.42 235.66 583.65 239.23 583.65 243.85V243.84Z" fill="#1D1D1F"/>
<path d="M635.01 275.7C628.36 275.7 624.39 271.69 624.39 264.97V235.22H649.37V229.02H624.39V210.58H614.69V229.02H597.31V235.22H614.69V267.08C614.69 271.69 615.93 275.25 618.49 277.96C620.96 280.58 625.1 281.91 630.8 281.91H652.63V275.71H635.01V275.7Z" fill="#1D1D1F"/>
<path d="M652.63 275.7V281.9H630.8C625.1 281.9 620.96 280.57 618.49 277.95C615.93 275.24 614.69 271.68 614.69 267.07V235.21H597.31V229.01H614.69V210.57H624.39V229.01H649.37V235.21H624.39V264.96C624.39 271.68 628.36 275.69 635.01 275.69H652.63V275.7Z" fill="#1D1D1F"/>
<path d="M443.07 109.38C430.18 156.27 381.73 183.83 334.84 170.94C295.75 160.2 270.09 124.73 270.11 86.06C273.5 118.54 296.33 147.16 329.71 156.34C373.2 168.29 418.15 142.73 430.1 99.24C442.05 55.75 417.97 13.46 376.82 0C378.39 0.34 379.95 0.72 381.52 1.15C428.41 14.04 455.97 62.5 443.08 109.39L443.07 109.38Z" fill="url(#paint0_linear_70_66)"/>
<path d="M289.32 90.52C295.77 105.97 309.01 118.4 326.4 123.18C356.41 131.43 387.42 113.79 395.66 83.78C403.81 54.13 386.68 23.49 357.31 14.82C360.65 15.17 364 15.81 367.34 16.72C400.77 25.91 420.43 60.47 411.24 93.9C402.05 127.33 367.49 146.99 334.06 137.8C310.73 131.39 294.11 112.63 289.32 90.52Z" fill="url(#paint1_linear_70_66)"/>
<path d="M188.87 69.59C201.76 22.7 250.21 -4.86001 297.1 8.02999C336.19 18.77 361.85 54.24 361.83 92.91C358.44 60.43 335.61 31.81 302.23 22.63C258.74 10.68 213.79 36.24 201.84 79.73C190.24 121.93 213.97 165.51 255.13 178.97C253.56 178.63 252 178.25 250.43 177.82C203.54 164.93 175.98 116.47 188.87 69.58V69.59Z" fill="url(#paint2_linear_70_66)"/>
<path d="M342.63 88.46C336.18 73.01 322.94 60.58 305.55 55.8C275.54 47.55 244.53 65.19 236.29 95.2C228.14 124.85 245.27 155.49 274.64 164.16C271.3 163.81 267.95 163.17 264.61 162.26C231.18 153.07 211.52 118.51 220.71 85.08C229.9 51.65 264.46 31.99 297.89 41.18C321.22 47.59 337.84 66.35 342.63 88.46Z" fill="url(#paint3_linear_70_66)"/>
</g>
<defs>
<linearGradient id="paint0_linear_70_66" x1="257.086" y1="140.796" x2="434.922" y2="61.1059" gradientUnits="userSpaceOnUse">
<stop stop-color="#A352D9"/>
<stop offset="1" stop-color="#7937A6"/>
</linearGradient>
<linearGradient id="paint1_linear_70_66" x1="411.435" y1="49.404" x2="306.689" y2="109.346" gradientUnits="userSpaceOnUse">
<stop stop-color="#A352D9"/>
<stop offset="1" stop-color="#7937A6"/>
</linearGradient>
<linearGradient id="paint2_linear_70_66" x1="374.897" y1="38.2262" x2="197.058" y2="117.926" gradientUnits="userSpaceOnUse">
<stop stop-color="#A352D9"/>
<stop offset="1" stop-color="#7937A6"/>
</linearGradient>
<linearGradient id="paint3_linear_70_66" x1="220.549" y1="129.619" x2="325.294" y2="69.6769" gradientUnits="userSpaceOnUse">
<stop stop-color="#A352D9"/>
<stop offset="1" stop-color="#7937A6"/>
</linearGradient>
<clipPath id="clip0_70_66">
<rect width="652.63" height="283.2" fill="white"/>
</clipPath>
</defs>
</svg>
