<svg width="166" height="28" viewBox="0 0 166 28" fill="none" xmlns="http://www.w3.org/2000/svg">
<path d="M44.8389 22.6005V5.2793H59.3514C61.145 5.2793 62.5379 5.73184 63.5302 6.63693C64.5245 7.54201 65.0206 8.91417 65.0206 10.7555C65.0206 12.5968 64.5245 13.969 63.5302 14.874C62.5379 15.7791 61.1429 16.2317 59.3514 16.2317H48.7146V22.6026H44.8389V22.6005ZM58.8906 8.42841H48.7146V13.0556L58.8906 13.0805C59.6005 13.0805 60.1465 12.9019 60.5264 12.547C60.9062 12.192 61.0951 11.5941 61.0951 10.7534C61.0951 9.91267 60.9042 9.29613 60.5264 8.94946C60.1465 8.60279 59.6026 8.42841 58.8906 8.42841Z" fill="#1D1D1F"/>
<path d="M67.0799 22.6005V10.1223H76.6248C78.0302 10.1223 79.064 10.4731 79.7262 11.1769C80.3884 11.8785 80.7185 12.8044 80.7185 13.9502V16.543H77.1563V14.3862C77.1563 13.4167 76.6726 12.9331 75.7031 12.9331H70.6401V22.6005H67.0779H67.0799Z" fill="#1D1D1F"/>
<path d="M89.5369 22.723C87.3717 22.723 85.684 22.1853 84.4738 21.1121C83.2615 20.0389 82.6574 18.4591 82.6574 16.3749C82.6574 14.2907 83.2635 12.6881 84.4738 11.6149C85.6861 10.5417 87.3738 10.004 89.5369 10.004H94.0187C96.1838 10.004 97.8715 10.5417 99.0818 11.6149C100.294 12.6902 100.898 14.2762 100.898 16.3749C100.898 18.4736 100.292 20.0368 99.0818 21.1121C97.8695 22.1874 96.1818 22.723 94.0187 22.723H89.5369ZM89.5369 19.9371H94.0187C95.0691 19.9371 95.8725 19.6465 96.4288 19.0653C96.9851 18.484 97.2654 17.5872 97.2654 16.377C97.2654 15.1668 96.9872 14.2451 96.4288 13.6638C95.8725 13.0826 95.067 12.7919 94.0187 12.7919H89.5369C88.4865 12.7919 87.6831 13.0826 87.1268 13.6638C86.5704 14.2451 86.2902 15.1501 86.2902 16.377C86.2902 17.6038 86.5683 18.484 87.1268 19.0653C87.6831 19.6465 88.4865 19.9371 89.5369 19.9371Z" fill="#1D1D1F"/>
<path d="M109.961 21.1639C108.583 21.1639 107.759 20.3315 107.759 18.9365V12.7607H112.945V11.4737H107.759V7.64575H105.745V11.4737H102.137V12.7607H105.745V19.3745C105.745 20.3315 106.003 21.0705 106.534 21.6331C107.047 22.1769 107.906 22.453 109.09 22.453H113.621V21.166H109.961V21.1639Z" fill="#1D1D1F"/>
<path d="M118.751 18.4486L118.545 17.5332H128.64C131.156 17.5332 132.275 16.5907 132.275 14.4796C132.275 13.4499 131.989 12.6943 131.399 12.1691C130.793 11.6273 129.865 11.3533 128.638 11.3533H122.583C120.617 11.3533 119.081 11.8307 118.016 12.7773C116.963 13.7094 116.451 15.0836 116.451 16.9748C116.451 18.8659 116.963 20.2173 118.016 21.1514C119.081 22.0939 120.617 22.5734 122.583 22.5734H131.644V21.2885H122.583C119.944 21.2885 119.041 19.744 118.749 18.4507L118.751 18.4486ZM118.784 15.2975C119.118 14.0851 120.05 12.6403 122.585 12.6403H128.47C129.577 12.6403 130.262 13.3171 130.262 14.4069C130.262 15.0753 129.998 15.4926 129.774 15.7251C129.545 15.9638 129.134 16.2461 128.468 16.2461H118.52L118.782 15.2975H118.784Z" fill="#1D1D1F"/>
<path d="M141.602 21.2864C140.344 21.2864 139.35 20.9148 138.65 20.182C137.957 19.4596 137.604 18.3801 137.604 16.9727C137.604 15.5652 137.957 14.465 138.65 13.7426C139.35 13.0098 140.344 12.6382 141.602 12.6382H148.967V11.3512H141.602C139.636 11.3512 138.1 11.8286 137.037 12.7753C135.985 13.7073 135.472 15.0816 135.472 16.9727C135.472 18.8638 135.983 20.2152 137.037 21.1494C138.1 22.0918 139.636 22.5714 141.602 22.5714H149.21V21.2864H141.602Z" fill="#1D1D1F"/>
<path d="M165.219 12.2895C164.717 11.7477 163.854 11.4737 162.656 11.4737H154.541V6.62854H152.528V22.4509H154.541V12.7607H161.784C163.164 12.7607 163.986 13.5848 163.986 14.9632V22.4509H166V14.5501C166 13.5911 165.745 12.85 165.219 12.2874V12.2895Z" fill="#1D1D1F"/>
<path d="M37.7207 16.9167C35.8316 23.7879 28.73 27.8276 21.8568 25.9385C16.1273 24.3629 12.3679 19.167 12.37 13.4977C12.8661 18.2577 16.2124 22.4531 21.1053 23.7983C27.4803 25.5503 34.0671 21.8033 35.8192 15.4283C37.5193 9.24216 34.0422 2.85673 28.0097 0.882568C28.2401 0.93239 28.4685 0.988438 28.6968 1.05072C35.568 2.93977 39.6076 10.0414 37.7207 16.9146V16.9167Z" fill="url(#paint0_linear_341_2554)"/>
<path d="M15.187 14.1516C16.1315 16.4164 18.0724 18.237 20.6216 18.9386C25.0204 20.1468 29.5645 17.5623 30.7727 13.1635C31.9809 8.76471 29.4566 4.32647 25.1533 3.05603C25.6432 3.10793 26.1331 3.20134 26.623 3.3342C31.5242 4.68145 34.4034 9.74453 33.0562 14.6457C31.7089 19.5469 26.6458 22.4261 21.7447 21.0789C18.3257 20.1385 15.8907 17.39 15.187 14.1496V14.1516Z" fill="url(#paint1_linear_341_2554)"/>
<path d="M0.464797 11.0834C2.35385 4.21223 9.45546 0.172553 16.3266 2.06161C22.0561 3.6372 25.8155 8.83314 25.8134 14.5024C25.3173 9.74238 21.971 5.54702 17.0781 4.20184C10.7051 2.4498 4.11835 6.19677 2.36631 12.5718C0.61426 18.9469 4.14326 25.1434 10.1758 27.1175C9.94536 27.0677 9.71702 27.0117 9.48867 26.9494C2.61541 25.0583 -1.42426 17.9567 0.464797 11.0834Z" fill="url(#paint2_linear_341_2554)"/>
<path d="M22.9985 13.8486C22.054 11.5838 20.1131 9.76323 17.5639 9.06158C13.1651 7.85342 8.62096 10.4379 7.41279 14.8367C6.20463 19.2355 8.72891 23.6737 13.0322 24.9442C12.5423 24.8923 12.0524 24.7989 11.5625 24.666C6.66132 23.3188 3.78207 18.2557 5.12932 13.3545C6.47657 8.45335 11.5397 5.5741 16.4408 6.92134C19.8598 7.86172 22.2948 10.6102 22.9985 13.8506V13.8486Z" fill="url(#paint3_linear_341_2554)"/>
<defs>
<linearGradient id="paint0_linear_341_2554" x1="10.452" y1="21.5116" x2="36.5165" y2="9.83183" gradientUnits="userSpaceOnUse">
<stop stop-color="#A352D9"/>
<stop offset="1" stop-color="#7937A6"/>
</linearGradient>
<linearGradient id="paint1_linear_341_2554" x1="33.0744" y1="8.11797" x2="17.7214" y2="16.9028" gradientUnits="userSpaceOnUse">
<stop stop-color="#A352D9"/>
<stop offset="1" stop-color="#7937A6"/>
</linearGradient>
<linearGradient id="paint2_linear_341_2554" x1="27.7263" y1="6.48769" x2="1.66371" y2="18.1681" gradientUnits="userSpaceOnUse">
<stop stop-color="#A352D9"/>
<stop offset="1" stop-color="#7937A6"/>
</linearGradient>
<linearGradient id="paint3_linear_341_2554" x1="5.10523" y1="19.884" x2="20.4582" y2="11.0992" gradientUnits="userSpaceOnUse">
<stop stop-color="#A352D9"/>
<stop offset="1" stop-color="#7937A6"/>
</linearGradient>
</defs>
</svg>
